<svg width="150" height="150" viewBox="0 0 150 150" fill="none" xmlns="http://www.w3.org/2000/svg">
<rect x="0.5" y="0.5" width="149" height="149" rx="19.5" fill="#191919"/>
<rect x="0.5" y="0.5" width="149" height="149" rx="19.5" stroke="#292929"/>
<path fill-rule="evenodd" clip-rule="evenodd" d="M34.984 97.668H34.5678L33.1299 101.149H33.4704L33.811 100.279H35.7408L36.1192 101.149H36.422L34.984 97.668ZM34.7948 97.9708L35.6273 100.014H33.9245L34.7948 97.9708ZM39.1086 100.052C39.1338 100.052 39.159 100.052 39.1843 100.052L40.0546 101.187H40.4708L39.487 100.014C39.9789 99.8628 40.3195 99.4465 40.3195 98.8789C40.3195 98.0464 39.7519 97.668 39.1086 97.668H37.595V101.187H37.8977V100.052H39.1086ZM37.9356 97.9708H39.1086C39.6005 97.9708 40.0168 98.2356 40.0168 98.8789C40.0168 99.4465 39.6005 99.7871 39.1086 99.7871H37.9356V97.9708ZM41.4168 99.4465C41.4168 100.468 42.2115 101.225 43.271 101.225C43.498 101.225 43.7125 101.187 43.9143 101.111L44.6711 102.171L44.9359 101.944L44.217 100.998C44.7467 100.695 45.1251 100.128 45.1251 99.4465C45.1251 98.387 44.3305 97.6302 43.271 97.6302C42.2115 97.6302 41.4168 98.387 41.4168 99.4465ZM41.7574 99.4465C41.7574 98.5384 42.4007 97.8951 43.271 97.8951C44.1413 97.8951 44.8224 98.5384 44.8224 99.4465C44.8224 100.317 44.1413 100.922 43.271 100.922C42.4007 100.922 41.7574 100.317 41.7574 99.4465ZM46.4495 99.9006C46.4495 100.695 47.055 101.225 47.9631 101.225C48.9091 101.225 49.4767 100.657 49.4767 99.9006V97.668H49.174V99.9006C49.174 100.506 48.7199 100.922 47.9631 100.922C47.2442 100.922 46.7901 100.506 46.7901 99.9006V97.668H46.4495V99.9006ZM51.1039 101.187H51.4444V97.7059H51.1039V101.187ZM55.3041 97.9708V97.668H52.6175V97.9708H53.8283V101.187H54.1311V97.9708H55.3041ZM59.0124 101.187V100.884H56.8177V99.5222H58.7097V99.2195H56.8177V97.9708H58.9746V97.668H56.4771V101.187H59.0124ZM62.6072 97.9708V97.668H59.9584V97.9708H61.1314V101.187H61.4342V97.9708H62.6072ZM63.7802 99.9006C63.7802 100.695 64.3478 101.225 65.2938 101.225C66.202 101.225 66.8074 100.695 66.8074 99.9006V97.668H66.4669V99.9006C66.4669 100.506 66.0128 100.922 65.2938 100.922C64.537 100.922 64.083 100.506 64.083 99.9006V97.668H63.7802V99.9006ZM69.9103 100.052C69.9355 100.052 69.9608 100.052 69.986 100.052L70.8942 101.187H71.3104L70.3266 100.014C70.7806 99.8628 71.159 99.4844 71.159 98.8789C71.159 98.0843 70.5914 97.7059 69.9103 97.7059H68.4346V101.187H68.7373V100.052H69.9103ZM68.6994 97.9708H69.9103C70.4022 97.9708 70.8185 98.2735 70.8185 98.8789C70.8185 99.4465 70.4022 99.7871 69.9103 99.7871H68.6994V97.9708ZM73.8457 97.668H73.4673L71.9915 101.187H72.3321L72.7105 100.279H74.6025L74.9809 101.187H75.2836L73.8457 97.668ZM73.6565 97.9329L74.5268 99.9763H72.824L73.6565 97.9329ZM80.0136 97.7816C79.8244 97.7059 79.5595 97.5924 79.2189 97.5924C78.5757 97.5924 78.1216 97.9707 78.1216 98.4627C78.1216 98.7654 78.2729 98.9924 78.4621 99.1816C78.1594 99.333 77.7432 99.6735 77.7432 100.165C77.7432 100.771 78.3108 101.187 79.0297 101.187C79.5973 101.187 79.9379 100.922 80.0893 100.771L80.4677 101.149H80.8839L80.2785 100.582C80.5055 100.241 80.619 99.7871 80.619 99.2573H80.3163C80.3541 99.6357 80.2785 100.09 80.0514 100.393L78.8027 99.1438C78.5378 98.9167 78.4621 98.7276 78.4621 98.4248C78.4621 98.1221 78.7649 97.8951 79.2189 97.8951C79.5217 97.8951 79.8244 97.9708 79.9757 98.0464L80.0136 97.7816ZM79.9001 100.582C79.7487 100.733 79.5217 100.922 79.0297 100.922C78.4621 100.922 78.0459 100.62 78.0459 100.203C78.0459 99.7492 78.3486 99.5222 78.6135 99.4087L79.9001 100.582ZM83.5705 101.149H83.8733V97.6302H83.5705V101.149ZM88.7546 97.668H88.414V100.733L85.9166 97.668H85.5382V101.149H85.8788V98.0843L88.3762 101.149H88.7546V97.668ZM92.6143 97.9708V97.668H89.9276V97.9708H91.1007V101.187H91.4412V97.9708H92.6143ZM96.3226 101.187V100.884H94.09V99.5222H95.982V99.2195H94.09V97.9708H96.2848V97.668H93.7873V101.187H96.3226ZM99.2363 100.052C99.2615 100.052 99.2741 100.052 99.2741 100.052L100.182 101.187H100.599L99.6147 100.014C100.107 99.8628 100.447 99.4465 100.447 98.8789C100.447 98.0464 99.8796 97.668 99.2363 97.668H97.7227V101.187H98.0254V100.052H99.2363ZM98.0632 97.9708H99.2363C99.7282 97.9708 100.144 98.2356 100.144 98.8789C100.144 99.4465 99.7282 99.7871 99.2363 99.7871H98.0632V97.9708ZM101.885 101.149H102.188V97.668H101.885V101.149ZM103.588 99.4087C103.588 100.468 104.345 101.225 105.404 101.225C106.464 101.225 107.258 100.468 107.258 99.4087C107.258 98.387 106.464 97.5924 105.404 97.5924C104.345 97.5924 103.588 98.387 103.588 99.4087ZM103.891 99.4087C103.891 98.5383 104.534 97.8951 105.404 97.8951C106.275 97.8951 106.956 98.5383 106.956 99.4087C106.956 100.317 106.275 100.922 105.404 100.922C104.534 100.922 103.891 100.317 103.891 99.4087ZM110.134 100.014C110.159 100.014 110.185 100.014 110.21 100.014L111.118 101.149H111.534L110.55 99.9763C111.005 99.8249 111.383 99.4465 111.383 98.8411C111.383 98.0464 110.815 97.668 110.134 97.668H108.658V101.149H108.961V100.014H110.134ZM108.923 97.9329H110.134C110.626 97.9329 111.042 98.2356 111.042 98.8411C111.042 99.4087 110.626 99.7492 110.134 99.7492H108.923V97.9329ZM115.28 101.149V100.847H113.048V99.4844H114.94V99.2195H113.048V97.9329H115.243V97.668H112.745V101.149H115.28ZM117.891 99.5979C118.345 99.7492 118.535 99.9384 118.535 100.241C118.535 100.657 118.156 100.922 117.551 100.922C117.21 100.922 116.794 100.809 116.453 100.657L116.416 100.96C116.794 101.111 117.21 101.187 117.551 101.187C118.345 101.187 118.837 100.847 118.837 100.241C118.837 99.8249 118.61 99.56 118.005 99.333L117.399 99.106C117.059 98.9924 116.756 98.8789 116.756 98.5384C116.756 98.1221 117.097 97.8572 117.664 97.8572C117.929 97.8572 118.308 97.9329 118.61 98.0464L118.648 97.7816C118.345 97.668 117.967 97.5924 117.626 97.5924C116.87 97.5924 116.416 97.9329 116.416 98.5384C116.416 98.9924 116.756 99.2195 117.286 99.4087L117.891 99.5979ZM71.6888 94.376H79.1054V93.2408H72.9375V89.646H77.2513V88.5108H72.9375V85.1809H79.1054V84.0457H71.6888V94.376Z" fill="#BFBFBF"/>
<path fill-rule="evenodd" clip-rule="evenodd" d="M96.2853 93.2785H102.34V94.4515H94.9988V84.0834H96.2853V93.2785ZM105.707 84.0455H106.956V94.4137H105.707V84.0455ZM112.405 93.2785H118.762V94.4137H110.778V93.392L117.097 85.2186H110.854V84.0455H118.687V85.2186L112.405 93.2785ZM65.3701 90.9324L68.2459 94.4137H66.6567L64.0457 91.1594H60.7536V94.4137H59.5049V90.0242H63.9322C65.2566 90.0242 66.3918 89.1161 66.3918 87.6403C66.3918 85.9754 65.2566 85.2186 63.9322 85.2186H60.7536V88.4728H59.5049V84.0455H64.0835C66.0134 84.0455 67.6783 85.1807 67.6783 87.6403C67.6783 89.3053 66.6945 90.4783 65.3701 90.9324ZM53.7154 93.165H55.6074V94.4137H49.8557C46.8285 94.338 44.5203 92.1433 44.5203 89.0404C44.5203 85.8619 46.9042 83.5536 50.0449 83.5536C53.2613 83.5536 55.6074 85.8619 55.6074 89.0404C55.6074 90.7811 54.8884 92.219 53.7154 93.165ZM50.0449 93.2028C52.5424 93.2028 54.3208 91.5 54.3208 89.0404C54.3208 86.543 52.5424 84.7645 50.0449 84.7645C47.6232 84.7645 45.8447 86.543 45.8447 89.0404C45.8447 91.5 47.6232 93.2028 50.0449 93.2028ZM25.7517 83.8185L30.0276 94.1488H28.7032L28.287 93.0514H21.7785L21.3244 94.1488H20L24.2759 83.8185H25.7517ZM27.341 90.7054L24.9949 85.105L22.6866 90.7054L22.2704 91.7649L22.2326 91.8784H27.795L27.7572 91.7649L27.341 90.7054Z" fill="#BFBFBF"/>
<path fill-rule="evenodd" clip-rule="evenodd" d="M86.0675 84.0834L81.7537 94.4515H83.116L83.5322 93.3542H90.0407L90.4948 94.4515H91.8192L87.5433 84.0834H86.0675ZM89.5488 92.0298L89.5866 92.1433H84.0241L84.062 92.0298L84.4782 90.9702L86.7865 85.4078L89.1325 90.9702L89.5488 92.0298ZM130 85.1051V83.9699H122.583V94.3002H130V93.165H123.832V89.5702H128.146V88.435H123.832V85.1051H130ZM41.3785 87.5268C41.3785 85.1051 39.7135 83.9699 37.7837 83.9699H33.2051V88.3593H34.4538V85.1051H37.6324C38.9946 85.1051 40.0919 85.8997 40.0919 87.5268C40.0919 89.0404 38.9946 89.9486 37.6324 89.9486H33.2051V94.3002H34.4538V91.0838H37.7459L40.3568 94.3002H41.9461L39.1081 90.8567C40.4325 90.4026 41.3785 89.2296 41.3785 87.5268ZM72.2938 68.8339L87.3162 77.3479L89.965 77.4235L73.3533 67.9636L80.505 62.2497L61.4715 47.0002V58.7685H62.6824V49.5733L78.5373 62.2497L72.1802 67.3203L61.4337 61.1524L61.4715 62.4011V77.4992L72.2938 68.8339ZM71.1207 68.1528L62.6824 74.9261V63.3471L71.1207 68.1528Z" fill="#BFBFBF"/>
</svg>
